<?xml version="1.0" encoding="UTF-8"?>
<svg width="24px" height="19px" viewBox="0 0 24 19" version="1.1" xmlns="http://www.w3.org/2000/svg" xmlns:xlink="http://www.w3.org/1999/xlink">
    <!-- Generator: Sketch 62 (91390) - https://sketch.com -->
    <title>finance business bag</title>
    <desc>Created with Sketch.</desc>
    <g id="Design-File" stroke="none" stroke-width="1" fill="none" fill-rule="evenodd">
        <g id="00.start" transform="translate(-155.000000, -2318.000000)" fill="#F06E1E">
            <g id="Section-3" transform="translate(135.000000, 1832.000000)">
                <g id="Group-8" transform="translate(0.000000, 473.000000)">
                    <g id="finance-business-bag" transform="translate(20.000000, 13.000000)">
                        <g id="icons">
                            <path d="M22.5,3 L16,3 L16,1.5 C16,0.673 15.327,0 14.5,0 L9.5,0 C8.673,0 8,0.673 8,1.5 L8,3 L1.5,3 C0.673,3 0,3.673 0,4.5 L0,10.5 C0,10.701 0.121,10.883 0.306,10.961 C0.53,11.055 0.766,11.142 1,11.23 L1,17.5 C1,18.327 1.673,19 2.5,19 L21.5,19 C22.327,19 23,18.327 23,17.5 L23,11.23 C23.234,11.142 23.47,11.056 23.694,10.961 C23.879,10.883 24,10.701 24,10.5 L24,4.5 C24,3.673 23.327,3 22.5,3 L22.5,3 Z M9,1.5 C9,1.224 9.224,1 9.5,1 L14.5,1 C14.776,1 15,1.224 15,1.5 L15,3 L9,3 L9,1.5 L9,1.5 Z M22,17.5 C22,17.776 21.776,18 21.5,18 L2.5,18 C2.224,18 2,17.776 2,17.5 L2,11.578 C4.326,12.327 7.047,12.794 10,12.943 L10,13.5 C10,13.776 10.224,14 10.5,14 L13.5,14 C13.776,14 14,13.776 14,13.5 L14,12.943 C16.953,12.794 19.674,12.328 22,11.578 L22,17.5 L22,17.5 Z M11,13 L11,12 L13,12 L13,13 L11,13 L11,13 Z M23,10.165 C22.777,10.254 22.54,10.336 22.305,10.42 L22.305,10.42 C19.961,11.251 17.073,11.782 14,11.942 L14,11.5 C14,11.224 13.776,11 13.5,11 L10.5,11 C10.224,11 10,11.224 10,11.5 L10,11.942 C6.927,11.781 4.038,11.251 1.695,10.42 L1.695,10.42 C1.46,10.336 1.223,10.254 1,10.165 L1,4.5 C1,4.224 1.224,4 1.5,4 L22.5,4 C22.776,4 23,4.224 23,4.5 L23,10.165 L23,10.165 Z" id="Shape"/>
                        </g>
                    </g>
                </g>
            </g>
        </g>
    </g>
</svg>