<?xml version="1.0" encoding="UTF-8"?>
<svg width="24px" height="24px" viewBox="0 0 24 24" version="1.1" xmlns="http://www.w3.org/2000/svg" xmlns:xlink="http://www.w3.org/1999/xlink">
    <!-- Generator: Sketch 62 (91390) - https://sketch.com -->
    <title>icons</title>
    <desc>Created with Sketch.</desc>
    <g id="Design-File" stroke="none" stroke-width="1" fill="none" fill-rule="evenodd">
        <g id="00.start" transform="translate(-155.000000, -2369.000000)" fill="#F06E1E">
            <g id="Section-3" transform="translate(135.000000, 1832.000000)">
                <g id="Group-9" transform="translate(0.000000, 527.000000)">
                    <g id="ecommerce-24-h-support" transform="translate(20.000000, 10.000000)">
                        <g id="icons">
                            <path d="M14,7.993 C14,7.193 13.687,6.441 13.121,5.877 C11.988,4.746 10.013,4.747 8.88,5.876 C8.313,6.441 8,7.193 8,7.993 C8,8.269 8.224,8.493 8.5,8.493 C8.776,8.493 9,8.27 9,7.993 C9,7.461 9.208,6.961 9.585,6.584 C10.341,5.832 11.658,5.831 12.414,6.585 C12.792,6.961 13,7.461 13,7.993 C13,8.882 12.334,9.553 11.682,10.092 C10.659,10.939 9.659,11.818 8.659,12.696 L8.17,13.124 C8.013,13.262 7.958,13.481 8.032,13.676 C8.105,13.871 8.292,14 8.5,14 L13.5,14 C13.776,14 14,13.776 14,13.5 C14,13.224 13.776,13 13.5,13 L9.827,13 C10.651,12.278 11.477,11.56 12.32,10.862 C13.102,10.216 14,9.305 14,7.993 L14,7.993 Z" id="Shape"/>
                            <path d="M20,10.5 C20,10.224 19.776,10 19.5,10 C19.224,10 19,10.224 19,10.5 L19,11 L16.25,11 L18.461,5.692 C18.567,5.437 18.447,5.144 18.192,5.038 C17.938,4.935 17.645,5.053 17.538,5.308 L15.038,11.308 C14.974,11.462 14.991,11.639 15.083,11.778 C15.175,11.917 15.333,12 15.5,12 L19,12 L19,13.5 C19,13.776 19.224,14 19.5,14 C19.776,14 20,13.776 20,13.5 L20,12 L20.5,12 C20.776,12 21,11.776 21,11.5 C21,11.224 20.776,11 20.5,11 L20,11 L20,10.5 L20,10.5 Z" id="Shape"/>
                            <path d="M14,0 C9.861,0 6.117,2.617 4.656,6.443 L4.616,6.403 C4.096,5.883 3.192,5.883 2.673,6.403 L1.436,7.639 C1.208,7.866 1.001,8.118 0.823,8.386 C-0.155,9.848 -0.266,11.803 0.539,13.365 C1.438,15.113 2.773,16.973 4.299,18.603 C5.587,19.979 7.039,21.197 8.616,22.221 L8.837,22.366 C10.009,23.132 11.338,24 12.886,24 L12.913,24 C14.198,23.991 15.455,23.466 16.361,22.559 L17.597,21.324 C17.857,21.064 18,20.72 18,20.352 C18,19.984 17.857,19.639 17.597,19.379 L17.561,19.343 C21.386,17.881 24,14.141 24,10 C24,4.486 19.514,0 14,0 L14,0 Z M16.891,20.615 L15.654,21.851 C14.931,22.574 13.93,22.993 12.906,22.999 L12.886,23.499 L12.886,23 C11.636,23 10.491,22.252 9.384,21.528 L9.161,21.383 C7.652,20.402 6.262,19.237 5.029,17.919 C3.564,16.355 2.286,14.575 1.428,12.907 C0.787,11.662 0.876,10.105 1.654,8.94 C1.797,8.726 1.962,8.526 2.143,8.344 L3.38,7.109 C3.45,7.039 3.544,7 3.645,7 C3.746,7 3.839,7.039 3.91,7.109 L6.383,9.581 C6.529,9.727 6.529,9.965 6.383,10.11 L4.788,11.705 C4.315,12.177 4.244,12.915 4.621,13.461 C6.229,15.781 8.22,17.772 10.54,19.376 C10.767,19.533 11.034,19.616 11.312,19.616 C11.678,19.616 12.036,19.468 12.294,19.209 L13.89,17.615 C14.031,17.472 14.278,17.473 14.419,17.614 L16.892,20.086 C16.963,20.157 17.002,20.251 17.002,20.352 C17,20.451 16.961,20.544 16.891,20.615 L16.891,20.615 Z M16.775,18.557 L15.125,16.907 C14.604,16.387 13.7,16.388 13.182,16.908 L11.586,18.502 C11.514,18.574 11.414,18.616 11.311,18.616 C11.237,18.616 11.166,18.595 11.107,18.553 C8.886,17.017 6.98,15.112 5.442,12.891 C5.342,12.746 5.364,12.54 5.493,12.412 L7.089,10.817 C7.624,10.281 7.624,9.409 7.089,8.874 L5.441,7.227 C6.632,3.553 10.123,1 14,1 C18.962,1 23,5.037 23,10 C23,13.88 20.449,17.366 16.775,18.557 L16.775,18.557 Z" id="Shape"/>
                        </g>
                    </g>
                </g>
            </g>
        </g>
    </g>
</svg>