<?xml version="1.0" encoding="UTF-8"?>
<svg width="18px" height="18px" viewBox="0 0 18 18" version="1.1" xmlns="http://www.w3.org/2000/svg" xmlns:xlink="http://www.w3.org/1999/xlink">
    <!-- Generator: Sketch 62 (91390) - https://sketch.com -->
    <title>Close</title>
    <desc>Created with Sketch.</desc>
    <g id="Design-File" stroke="none" stroke-width="1" fill="none" fill-rule="evenodd">
        <g id="Interessiert?-sticky-v2" transform="translate(-1121.000000, -611.000000)" fill="#FFFFFF" fill-rule="nonzero">
            <g id="btn" transform="translate(1130.000000, 650.000000) rotate(-270.000000) translate(-1130.000000, -650.000000) translate(1060.000000, 625.000000)">
                <path d="M41.3100456,25.0125902 L48.7078007,17.6470417 C49.0624702,17.2955612 49.0624702,16.7265723 48.7078007,16.3759885 C48.3540268,16.024508 47.7794055,16.024508 47.4256316,16.3759885 L40.0342205,23.7352605 L32.574443,16.2663003 C32.2206692,15.9112332 31.6460478,15.9112332 31.2922739,16.2663003 C30.9385001,16.6222639 30.9385001,17.1984259 31.2922739,17.5534929 L38.746603,25.0170734 L31.2653304,32.4653364 C30.9115565,32.8168169 30.9115565,33.3858058 31.2653304,33.7363896 C31.6191043,34.0878701 32.1937256,34.0878701 32.5474995,33.7363896 L40.0224281,26.2944031 L47.4525005,33.7336997 C47.8062744,34.0887668 48.3808957,34.0887668 48.7346696,33.7336997 C49.0884435,33.3777361 49.0884435,32.8015741 48.7346696,32.4465071 L41.3100456,25.0125902 Z" id="Close"/>
            </g>
        </g>
    </g>
</svg>