<?xml version="1.0" encoding="UTF-8"?>
<svg width="20px" height="24px" viewBox="0 0 20 24" version="1.1" xmlns="http://www.w3.org/2000/svg" xmlns:xlink="http://www.w3.org/1999/xlink">
    <!-- Generator: Sketch 62 (91390) - https://sketch.com -->
    <title>icon</title>
    <desc>Created with Sketch.</desc>
    <g id="Design-File" stroke="none" stroke-width="1" fill="none" fill-rule="evenodd" stroke-linejoin="round">
        <g id="Interessiert?-sticky-v2" transform="translate(-1195.000000, -518.000000)" stroke="#F06E1E">
            <g id="online-form" transform="translate(1175.000000, 500.000000)">
                <g id="icon" transform="translate(21.000000, 19.000000)">
                    <path d="M17,22 L1,22 C0.4477153,22 0,21.5522842 0,21 L0,1 C0,0.4477153 0.4477153,0 1,0 L12,0 L18,6 L18,21 C18,21.5522842 17.5522842,22 17,22 Z" id="Path"/>
                    <polyline id="Path" points="12 0.5 12 6 18 6"/>
                    <line x1="3" y1="7.5" x2="9" y2="7.5" id="Path" stroke-linecap="round"/>
                    <line x1="3" y1="10.5" x2="15" y2="10.5" id="Path" stroke-linecap="round"/>
                    <line x1="3" y1="13.5" x2="15" y2="13.5" id="Path" stroke-linecap="round"/>
                    <line x1="3" y1="16.5" x2="15" y2="16.5" id="Path" stroke-linecap="round"/>
                </g>
            </g>
        </g>
    </g>
</svg>