<?xml version="1.0" encoding="UTF-8"?>
<svg width="101px" height="65px" viewBox="0 0 101 65" version="1.1" xmlns="http://www.w3.org/2000/svg" xmlns:xlink="http://www.w3.org/1999/xlink">
    <!-- Generator: Sketch 62 (91390) - https://sketch.com -->
    <title>icon</title>
    <desc>Created with Sketch.</desc>
    <g id="Design-File" stroke="none" stroke-width="1" fill="none" fill-rule="evenodd">
        <g id="00.start" transform="translate(-270.000000, -1294.000000)">
            <g id="Section-2" transform="translate(165.000000, 955.000000)">
                <g id="Group-2" transform="translate(0.000000, 316.000000)">
                    <g id="icon" transform="translate(100.000000, 0.000000)">
                        <g transform="translate(6.000000, 24.000000)">
                            <g id="Path">
                                <path d="M81.7255435,29.3484375 C80.5839015,29.3484375 79.4696187,29.4639158 78.3922945,29.6810197 C78.6264067,28.29743 78.7765217,26.8851797 78.7765217,25.4353125 C78.7765217,11.3878052 67.333703,6.39488462e-14 53.2183333,6.39488462e-14 C39.1029637,6.39488462e-14 27.6601449,11.3878052 27.6601449,25.4353125 C27.6601449,26.8851797 27.81026,28.29743 28.0443722,29.6810197 C26.9670479,29.4639158 25.8527652,29.3484375 24.7111232,29.3484375 C15.4818707,29.3484375 8,36.7942183 8,45.9792188 C8,55.1640999 15.4818707,62.61 24.7111232,62.61 C33.2772778,62.61 73.1593889,62.61 81.7255435,62.61 C90.954796,62.61 98.4366667,55.1640999 98.4366667,45.9792188 C98.4366667,36.7942183 90.954796,29.3484375 81.7255435,29.3484375 Z" fill="#F06E1E" opacity="0.0953078497"/>
                                <path d="M69.0424352,17.1136272 C65.5955141,7.15285458 56.1330569,4.26325641e-14 45,4.26325641e-14 C30.9527853,4.26325641e-14 19.5652174,11.3875679 19.5652174,25.4347826 C19.5652174,26.8846196 19.7146076,28.2968405 19.9475894,29.6804013 C18.875467,29.463302 17.7665645,29.3478261 16.6304348,29.3478261 C7.445745,29.3478261 1.91846539e-13,36.7934517 1.91846539e-13,45.9782609 C1.91846539e-13,55.1629507 7.445745,62.6086957 16.6304348,62.6086957 C20.9234514,62.6086957 33.1199969,62.6086957 45.2597656,62.6086957" stroke="#F06E1E" stroke-width="2" stroke-linecap="round" stroke-linejoin="round" stroke-dasharray="5,8"/>
                            </g>
                            <g transform="translate(52.000000, 23.000000)" stroke="#F06E1E" stroke-linecap="round" stroke-linejoin="round" stroke-width="2">
                                <g id="Layer_1">
                                    <path d="M44.444436,40 L2.22222911,40 C1.00000667,40 6.66666667e-06,38.9999983 6.66666667e-06,37.7777778 L6.66666667e-06,28.8888889 C6.66666667e-06,27.6666667 1.00000667,26.6666667 2.22222911,26.6666667 L44.4444343,26.6666667 C45.6666591,26.6666667 46.6666566,27.6666667 46.6666566,28.8888889 L46.6666566,37.7777778 C46.6666566,38.9999983 45.6666608,40 44.444436,40 Z" id="Path"/>
                                    <circle id="Oval" cx="36.6666667" cy="33.3333333" r="2.22222222"/>
                                    <path d="M44.444436,26.6666667 L2.22222911,26.6666667 C1.00000667,26.6666667 6.66666667e-06,25.6666671 6.66666667e-06,24.4444444 L6.66666667e-06,15.5555556 C6.66666667e-06,14.3333333 1.00000667,13.3333333 2.22222911,13.3333333 L44.4444343,13.3333333 C45.6666591,13.3333333 46.6666566,14.3333333 46.6666566,15.5555556 L46.6666566,24.4444444 C46.6666566,25.6666671 45.6666608,26.6666667 44.444436,26.6666667 Z" id="Path"/>
                                    <circle id="Oval" cx="36.6666667" cy="20" r="2.22222222"/>
                                    <path d="M44.444436,13.3333333 L2.22222911,13.3333333 C1.00000667,13.3333333 6.66666667e-06,12.3333338 6.66666667e-06,11.1111111 L6.66666667e-06,2.22222222 C6.66666667e-06,1 1.00000667,0 2.22222911,0 L44.4444343,0 C45.6666591,0 46.6666566,1 46.6666566,2.22222222 L46.6666566,11.1111111 C46.6666566,12.3333338 45.6666608,13.3333333 44.444436,13.3333333 Z" id="Path"/>
                                    <circle id="Oval" cx="36.6666667" cy="6.66666667" r="2.22222222"/>
                                    <line x1="6.66666667" y1="5.55555556" x2="6.66666667" y2="7.77777778" id="Path"/>
                                    <line x1="10" y1="5.55555556" x2="10" y2="7.77777778" id="Path"/>
                                    <line x1="13.3333333" y1="5.55555556" x2="13.3333333" y2="7.77777778" id="Path"/>
                                    <line x1="6.66666667" y1="18.8888889" x2="6.66666667" y2="21.1111111" id="Path"/>
                                    <line x1="10" y1="18.8888889" x2="10" y2="21.1111111" id="Path"/>
                                    <line x1="13.3333333" y1="18.8888889" x2="13.3333333" y2="21.1111111" id="Path"/>
                                    <line x1="6.66666667" y1="32.2222222" x2="6.66666667" y2="34.4444444" id="Path"/>
                                    <line x1="10" y1="32.2222222" x2="10" y2="34.4444444" id="Path"/>
                                    <line x1="13.3333333" y1="32.2222222" x2="13.3333333" y2="34.4444444" id="Path"/>
                                </g>
                                <g id="drive-shelve">
                                    <path d="M44.444436,40 L2.22222911,40 C1.00000667,40 6.66666667e-06,38.9999983 6.66666667e-06,37.7777778 L6.66666667e-06,28.8888889 C6.66666667e-06,27.6666667 1.00000667,26.6666667 2.22222911,26.6666667 L44.4444343,26.6666667 C45.6666591,26.6666667 46.6666566,27.6666667 46.6666566,28.8888889 L46.6666566,37.7777778 C46.6666566,38.9999983 45.6666608,40 44.444436,40 Z" id="Path"/>
                                    <circle id="Oval" cx="36.6666667" cy="33.3333333" r="2.22222222"/>
                                    <path d="M44.444436,26.6666667 L2.22222911,26.6666667 C1.00000667,26.6666667 6.66666667e-06,25.6666671 6.66666667e-06,24.4444444 L6.66666667e-06,15.5555556 C6.66666667e-06,14.3333333 1.00000667,13.3333333 2.22222911,13.3333333 L44.4444343,13.3333333 C45.6666591,13.3333333 46.6666566,14.3333333 46.6666566,15.5555556 L46.6666566,24.4444444 C46.6666566,25.6666671 45.6666608,26.6666667 44.444436,26.6666667 Z" id="Path"/>
                                    <circle id="Oval" cx="36.6666667" cy="20" r="2.22222222"/>
                                    <path d="M44.444436,13.3333333 L2.22222911,13.3333333 C1.00000667,13.3333333 6.66666667e-06,12.3333338 6.66666667e-06,11.1111111 L6.66666667e-06,2.22222222 C6.66666667e-06,1 1.00000667,0 2.22222911,0 L44.4444343,0 C45.6666591,0 46.6666566,1 46.6666566,2.22222222 L46.6666566,11.1111111 C46.6666566,12.3333338 45.6666608,13.3333333 44.444436,13.3333333 Z" id="Path"/>
                                    <circle id="Oval" cx="36.6666667" cy="6.66666667" r="2.22222222"/>
                                    <line x1="6.66666667" y1="5.55555556" x2="6.66666667" y2="7.77777778" id="Path"/>
                                    <line x1="10" y1="5.55555556" x2="10" y2="7.77777778" id="Path"/>
                                    <line x1="13.3333333" y1="5.55555556" x2="13.3333333" y2="7.77777778" id="Path"/>
                                    <line x1="6.66666667" y1="18.8888889" x2="6.66666667" y2="21.1111111" id="Path"/>
                                    <line x1="10" y1="18.8888889" x2="10" y2="21.1111111" id="Path"/>
                                    <line x1="13.3333333" y1="18.8888889" x2="13.3333333" y2="21.1111111" id="Path"/>
                                    <line x1="6.66666667" y1="32.2222222" x2="6.66666667" y2="34.4444444" id="Path"/>
                                    <line x1="10" y1="32.2222222" x2="10" y2="34.4444444" id="Path"/>
                                    <line x1="13.3333333" y1="32.2222222" x2="13.3333333" y2="34.4444444" id="Path"/>
                                </g>
                            </g>
                        </g>
                    </g>
                </g>
            </g>
        </g>
    </g>
</svg>