<?xml version="1.0" encoding="UTF-8"?>
<svg width="46px" height="23px" viewBox="0 0 46 23" version="1.1" xmlns="http://www.w3.org/2000/svg" xmlns:xlink="http://www.w3.org/1999/xlink">
    <!-- Generator: Sketch 62 (91390) - https://sketch.com -->
    <title>infinity</title>
    <desc>Created with Sketch.</desc>
    <g id="Design-File" stroke="none" stroke-width="1" fill="none" fill-rule="evenodd">
        <g id="10.about" transform="translate(-1115.000000, -1565.000000)" fill="#F06E1E" fill-rule="nonzero">
            <g id="boxes" transform="translate(135.000000, 1530.000000)">
                <g id="Group-4-Copy-4" transform="translate(960.000000, 0.000000)">
                    <g id="infinity" transform="translate(20.000000, 35.000000)">
                        <path d="M35.4828684,0.0377947952 C35.2016217,0.0164528761 34.9204685,0.0064429494 34.7083655,0.00870934789 C34.6230571,0.00143798606 25.6943621,-0.662333473 22.1194456,11.2299316 C18.9947106,21.6253349 11.7560186,21.1640284 11.3732054,21.1349429 C11.2303395,21.1349429 11.0866328,21.1317322 10.9428325,21.124933 C5.83881229,20.8961212 1.83987666,16.6684381 1.83987666,11.5000107 C1.83987666,6.18719494 6.11641493,1.86460641 11.3732054,1.86460641 C14.6318362,1.86460641 17.6317387,3.52077711 19.3980801,6.2952266 L20.9452172,5.28913454 C18.8393242,1.9803816 15.2607636,0.00493201707 11.3732988,0.00493201707 C5.10224494,0.00512088361 0,5.16174406 0,11.5001052 C0,17.6659367 4.77072889,22.7099954 10.8603273,22.9828131 C11.0301031,22.9905567 11.1999724,22.9932952 11.2915411,22.9909344 C11.3005111,22.9918787 11.4083379,23 11.5969881,23 C13.2025236,23 20.6810696,22.4115863 23.880461,11.7701843 C27.0051959,1.37393114 34.2457567,1.83835397 34.6267012,1.86470085 C34.8684238,1.86470085 35.1092121,1.87423861 35.3463563,1.89189763 C40.2886364,2.26415358 44.1600299,6.48418758 44.1600299,11.5000107 C44.1600299,16.8128265 39.8834916,21.1349429 34.6267012,21.1349429 C31.3680704,21.1349429 28.3691023,19.4787722 26.6027609,16.7043227 L25.0556237,17.7104148 C27.1615168,21.0191677 30.739143,22.9946173 34.6267012,22.9946173 C40.8977551,22.9946173 46,17.8379941 46,11.5001052 C46,5.51634099 41.3801726,0.4814423 35.4828684,0.0377947952 Z" id="Path"/>
                    </g>
                </g>
            </g>
        </g>
    </g>
</svg>