<?xml version="1.0" encoding="UTF-8"?>
<svg width="84px" height="71px" viewBox="0 0 84 71" version="1.1" xmlns="http://www.w3.org/2000/svg" xmlns:xlink="http://www.w3.org/1999/xlink">
    <!-- Generator: Sketch 62 (91390) - https://sketch.com -->
    <title>Group 4</title>
    <desc>Created with Sketch.</desc>
    <g id="Design-File" stroke="none" stroke-width="1" fill="none" fill-rule="evenodd">
        <g id="00.start" transform="translate(-678.000000, -1291.000000)">
            <g id="Section-2" transform="translate(165.000000, 955.000000)">
                <g id="Group-2-Copy" transform="translate(400.000000, 316.000000)">
                    <g id="icon" transform="translate(100.000000, 0.000000)">
                        <g id="Group-4" transform="translate(14.000000, 20.000000)">
                            <g id="Group" transform="translate(10.000000, 0.000000)" fill="#F06E1E" opacity="0.0993303571">
                                <rect id="Rectangle" x="9.28571429" y="6.19047619" width="52.6190476" height="41.7857143"/>
                                <path d="M3.0952381,52.6190476 L3.0952381,3.0952381 C3.0952381,1.38578545 4.48102355,4.26325641e-14 6.19047619,4.26325641e-14 L65,4.26325641e-14 C66.7094513,4.26325641e-14 68.0952381,1.38578545 68.0952381,3.0952381 L68.0952381,52.6190476" id="Path"/>
                                <path d="M44.8809524,54.1666667 L44.8809524,58.8095238 L26.3095238,58.8095238 L26.3095238,54.1666667 L8.52651283e-14,54.1666667 L8.52651283e-14,61.9047619 C8.52651283e-14,63.6142132 1.38578514,65 3.0952381,65 L69.6428571,65 C71.3523084,65 72.7380952,63.6142132 72.7380952,61.9047619 L72.7380952,54.1666667 L44.8809524,54.1666667 Z" id="Path"/>
                            </g>
                            <g id="icon" transform="translate(0.000000, 5.000000)" stroke="#F06E1E" stroke-linejoin="round" stroke-width="2">
                                <rect id="Rectangle" x="9.28571429" y="6.19047619" width="52.6190476" height="41.7857143"/>
                                <path d="M3.0952381,52.6190476 L3.0952381,3.0952381 C3.0952381,1.38578545 4.48102355,0 6.19047619,0 L65,0 C66.7094513,0 68.0952381,1.38578545 68.0952381,3.0952381 L68.0952381,52.6190476" id="Path" stroke-linecap="square"/>
                                <path d="M44.8809524,54.1666667 L44.8809524,58.8095238 L26.3095238,58.8095238 L26.3095238,54.1666667 L0,54.1666667 L0,61.9047619 C0,63.6142132 1.38578514,65 3.0952381,65 L69.6428571,65 C71.3523084,65 72.7380952,63.6142132 72.7380952,61.9047619 L72.7380952,54.1666667 L44.8809524,54.1666667 Z" id="Path"/>
                                <path d="M32.3122418,35.5174657 C34.1253914,33.7043191 37.0650848,33.7043191 38.8782344,35.5174657" id="Path" stroke-linecap="round"/>
                                <path d="M28.4820818,31.6873058 C32.4105679,27.7588167 38.7799085,27.7588167 42.7083944,31.6873058" id="Path" stroke-linecap="round"/>
                                <path d="M24.6519189,27.8571429 C30.6957472,21.8133146 40.494729,21.8133146 46.5385573,27.8571429" id="Path" stroke-linecap="round"/>
                            </g>
                        </g>
                    </g>
                </g>
            </g>
        </g>
    </g>
</svg>