<svg xmlns="http://www.w3.org/2000/svg" viewBox="0 0 153.93 210.05">
  <defs/>
  <path fill="#e77a43" d="M32.64 25.89c7 0 20.85 2.86 20.85 12.71v6H43.41v-3.25c0-4.12-6.53-6-10.77-6-11.34 0-19.81 8.48-19.81 20.74 0 13.17 9.62 20.61 20.39 20.61s18-8 18-8L56 76.63a31.92 31.92 0 01-23.59 10C14.2 86.59 1.49 73.65 1.49 56.24c0-17.07 12.51-30.35 31.15-30.35z"/>
  <path fill="#e77a43" d="M89.91 0h9.85L70.67 90h-9.85z"/>
  <path fill="#e77a43" d="M7.56 127.82H0v-8.93h7.79V103h10.88v15.92h13.86v8.93H18.67v26.57c0 11.57 8 13.06 12.26 13.06a13.29 13.29 0 002.63-.23v9.85a28.18 28.18 0 01-3.89.23c-7.33 0-22.11-2.29-22.11-21.64z"/>
  <path fill="#e77a43" d="M67.58 117.51c16.26 0 25 12.14 25 27.15 0 1.49-.35 4.58-.35 4.58H49.94c.68 12.37 9.62 19.36 19.93 19.36 10 0 16.95-6.76 16.95-6.76l4.81 7.9a33.91 33.91 0 01-22.34 8.48c-18.32 0-30.81-13.17-30.81-30.36 0-18.43 12.6-30.35 29.1-30.35zm13.51 23.6c-.34-9.62-6.41-14.78-13.63-14.78-8.48 0-15.35 5.16-17.07 14.78z"/>
  <path fill="#e77a43" d="M104.57 108a2.24 2.24 0 00-2.52-2.52h-4.7V96h11c5.15 0 7.33 1.49 7.33 6.64v37.57h5.15c2.06 0 4.58-.57 6.07-2.52l13.4-18.78H153l-15.7 21.53c-2.63 3.55-4.35 4.35-4.35 4.35v.21s1.95.69 3.9 4.35l8.59 15.7c.91 1.83 2.06 2.29 4.92 2.29h3.55v9.5h-8c-5.39 0-7.11-.91-9.63-5.38L125.76 152c-1.26-2.18-3.9-2.41-5.73-2.41h-4.35v27.26h-11.11z"/>
  <path fill="#e77a43" d="M12.25 198.26h11.34v11.79H12.25z"/>
</svg>