<?xml version="1.0" encoding="UTF-8"?>
<svg width="24px" height="24px" viewBox="0 0 24 24" version="1.1" xmlns="http://www.w3.org/2000/svg" xmlns:xlink="http://www.w3.org/1999/xlink">
    <!-- Generator: Sketch 62 (91390) - https://sketch.com -->
    <title>icon</title>
    <desc>Created with Sketch.</desc>
    <g id="Design-File" stroke="none" stroke-width="1" fill="none" fill-rule="evenodd" stroke-linecap="round" stroke-linejoin="round">
        <g id="Interessiert?-sticky-v2" transform="translate(-1193.000000, -598.000000)" stroke="#F06E1E">
            <g id="email" transform="translate(1175.000000, 580.000000)">
                <g id="icon" transform="translate(19.000000, 19.000000)">
                    <g id="Group">
                        <path d="M2,11.5 L2,4.99987795 L5.9999795,0 L19,0 C19.5522842,0 20,0.4477153 20,1 L20,11" id="Path"/>
                        <path d="M6,0 L6,4 C6,4.5522847 5.5522847,5 5,5 L2,5" id="Path"/>
                        <line x1="6.5" y1="6.5" x2="15.5" y2="6.5" id="Path"/>
                        <line x1="6.5" y1="9" x2="15.5" y2="9" id="Path"/>
                        <path d="M20.5,22 L1.5,22 C0.6715729,22 0,21.3284264 0,20.5 L0,11 L22,20.5 C22,21.3284264 21.3284264,22 20.5,22 Z" id="Path"/>
                        <polyline id="Path" points="22 20.5 22 10.5 11 15.5"/>
                        <line x1="0" y1="11" x2="2" y2="8.5" id="Path"/>
                        <line x1="22" y1="10.5" x2="20" y2="8.5" id="Path"/>
                    </g>
                </g>
            </g>
        </g>
    </g>
</svg>