<?xml version="1.0" encoding="UTF-8"?>
<svg width="22px" height="24px" viewBox="0 0 22 24" version="1.1" xmlns="http://www.w3.org/2000/svg" xmlns:xlink="http://www.w3.org/1999/xlink">
    <!-- Generator: Sketch 62 (91390) - https://sketch.com -->
    <title>badges badge star</title>
    <desc>Created with Sketch.</desc>
    <g id="Design-File" stroke="none" stroke-width="1" fill="none" fill-rule="evenodd">
        <g id="00.start" transform="translate(-155.000000, -2261.000000)" fill="#F06E1E">
            <g id="Section-3" transform="translate(135.000000, 1832.000000)">
                <g id="Group-10" transform="translate(0.000000, 419.000000)">
                    <g id="badges-badge-star" transform="translate(20.000000, 10.000000)">
                        <g id="badges-ribbon-5">
                            <g id="icons">
                                <path d="M8.216,14.412 L7.726,17.419 C7.695,17.608 7.775,17.798 7.931,17.908 C8.087,18.019 8.292,18.031 8.461,17.937 L11,16.534 L13.539,17.938 C13.615,17.979 13.698,18 13.781,18 C13.883,18 13.983,17.969 14.069,17.909 C14.225,17.799 14.305,17.609 14.274,17.42 L13.784,14.413 L15.857,12.288 C15.988,12.154 16.033,11.958 15.974,11.78 C15.914,11.602 15.76,11.473 15.575,11.445 L12.729,11.01 L11.452,8.289 C11.288,7.937 10.712,7.937 10.548,8.289 L9.271,11.01 L6.425,11.445 C6.239,11.473 6.085,11.603 6.026,11.78 C5.967,11.958 6.012,12.154 6.143,12.288 L8.216,14.412 L8.216,14.412 Z M9.685,11.957 C9.85,11.932 9.992,11.826 10.062,11.675 L11,9.677 L11.938,11.675 C12.008,11.826 12.15,11.932 12.315,11.957 L14.462,12.285 L12.892,13.895 C12.781,14.009 12.731,14.168 12.756,14.325 L13.121,16.565 L11.241,15.526 C11.166,15.484 11.082,15.463 10.999,15.463 C10.916,15.463 10.832,15.484 10.757,15.526 L8.877,16.565 L9.242,14.325 C9.267,14.168 9.218,14.009 9.106,13.895 L7.536,12.285 L9.685,11.957 L9.685,11.957 Z" id="Shape"/>
                                <path d="M1.117,3.67 C1.188,3.868 1.376,4 1.587,4 L20.413,4 C20.624,4 20.811,3.868 20.883,3.67 L21.97,0.67 C22.026,0.517 22.003,0.346 21.909,0.212 C21.815,0.078 21.663,0 21.5,0 L0.5,0 C0.337,0 0.185,0.08 0.091,0.213 C-0.003,0.346 -0.025,0.517 0.03,0.67 L1.117,3.67 L1.117,3.67 Z M20.787,1 L20.062,3 L1.938,3 L1.213,1 L20.787,1 L20.787,1 Z" id="Shape"/>
                                <path d="M3.5,5 C3.224,5 3,5.224 3,5.5 L3,23.5 C3,23.676 3.092,23.838 3.243,23.929 C3.393,24.02 3.582,24.024 3.735,23.942 L11,20.067 L18.265,23.942 C18.338,23.98 18.419,24 18.5,24 C18.589,24 18.679,23.976 18.757,23.929 C18.908,23.838 19,23.676 19,23.5 L19,5.5 C19,5.224 18.776,5 18.5,5 L3.5,5 L3.5,5 Z M18,22.667 L11.235,19.059 C11.162,19.02 11.081,19 11,19 C10.919,19 10.838,19.02 10.765,19.059 L4,22.667 L4,6 L18,6 L18,22.667 L18,22.667 Z" id="Shape"/>
                            </g>
                        </g>
                    </g>
                </g>
            </g>
        </g>
    </g>
</svg>