<?xml version="1.0" encoding="UTF-8"?>
<svg width="24px" height="24px" viewBox="0 0 24 24" version="1.1" xmlns="http://www.w3.org/2000/svg" xmlns:xlink="http://www.w3.org/1999/xlink">
    <!-- Generator: Sketch 62 (91390) - https://sketch.com -->
    <title>icon</title>
    <desc>Created with Sketch.</desc>
    <g id="Design-File" stroke="none" stroke-width="1" fill="none" fill-rule="evenodd" stroke-linejoin="round">
        <g id="Interessiert?-sticky-v2" transform="translate(-1193.000000, -678.000000)" stroke="#F06E1E">
            <g id="phone" transform="translate(1175.000000, 660.000000)">
                <g id="icon" transform="translate(30.000000, 30.000000) scale(-1, 1) translate(-30.000000, -30.000000) translate(19.000000, 19.000000)">
                    <path d="M21.1696457,8.81586899 C22.2257519,6.3606926 21.5830371,3.50068542 19.6564892,1.6482115 C19.2384167,1.24621391 18.9286892,0.952474209 18.9286892,0.952474209 C18.063406,0.0871909867 16.660536,0.0871909867 15.7952528,0.952474209 L14.4346354,2.31309164 C13.5693605,3.1783662 13.5693605,4.58125326 14.4346354,5.44652807 L14.878007,5.88989974 C15.9410313,6.95292312 16.3592437,8.5159142 15.9274283,9.95590444 C14.9088843,13.3524732 12.154054,14.9527663 10.0735422,15.6933926 C8.64419532,16.2022161 7.05270759,15.8831582 5.92600507,14.8670489 L5.44652773,14.4346357 C4.58124451,13.5693525 3.17837452,13.5693525 2.31309129,14.4346357 L0.952473769,15.7952532 C0.0871992489,16.6605271 0.0871992,18.0634157 0.952473671,18.9286896 L1.68420594,19.6604228 C3.59055747,21.5667732 6.48528491,22.1331867 8.93737572,21.0126497 C11.30867,19.9290331 13.9280732,18.0302917 16.3139215,15.6444444 C18.5127372,13.4456287 20.2144247,11.0365122 21.1696457,8.81586899 Z" id="Path"/>
                    <line x1="6.35555556" y1="15.6444444" x2="2.2" y2="19.8" id="Path"/>
                    <line x1="19.5555556" y1="1.95555556" x2="15.4" y2="6.11111111" id="Path"/>
                </g>
            </g>
        </g>
    </g>
</svg>