<?xml version="1.0" encoding="UTF-8"?>
<svg width="72px" height="76px" viewBox="0 0 72 76" version="1.1" xmlns="http://www.w3.org/2000/svg" xmlns:xlink="http://www.w3.org/1999/xlink">
    <!-- Generator: Sketch 62 (91390) - https://sketch.com -->
    <title>Group 11</title>
    <desc>Created with Sketch.</desc>
    <g id="Design-File" stroke="none" stroke-width="1" fill="none" fill-rule="evenodd">
        <g id="00.start" transform="translate(-1094.000000, -1291.000000)">
            <g id="Section-2" transform="translate(165.000000, 955.000000)">
                <g id="Group-2-Copy-2" transform="translate(800.000000, 318.000000)">
                    <g id="icon" transform="translate(110.000000, 0.000000)">
                        <g id="Group-11" transform="translate(20.000000, 18.000000)">
                            <g id="icon" opacity="0.0954473586" transform="translate(10.000000, 0.000000)" fill="#F06E1E">
                                <path d="M7.22222222,52 L7.22222222,47.6666667 C7.22222222,46.0711788 8.51562198,44.7777778 10.1111111,44.7777778 L50.5555556,44.7777778 C52.1510434,44.7777778 53.4444444,46.0711788 53.4444444,47.6666667 L53.4444444,52" id="Path"/>
                                <line x1="30.3333333" y1="36.1111111" x2="30.3333333" y2="52" id="Path"/>
                                <path d="M34.6666667,65 L26,65 C24.4045094,65 23.1111111,63.7065989 23.1111111,62.1111111 L23.1111111,54.8888889 C23.1111111,53.2934011 24.4045094,52 26,52 L34.6666667,52 C36.2621572,52 37.5555556,53.2934011 37.5555556,54.8888889 L37.5555556,62.1111111 C37.5555556,63.7065989 36.2621572,65 34.6666667,65 Z" id="Path"/>
                                <path d="M57.7777778,65 L49.1111111,65 C47.5156233,65 46.2222222,63.7065989 46.2222222,62.1111111 L46.2222222,54.8888889 C46.2222222,53.2934011 47.5156233,52 49.1111111,52 L57.7777778,52 C59.3732656,52 60.6666667,53.2934011 60.6666667,54.8888889 L60.6666667,62.1111111 C60.6666667,63.7065989 59.3732656,65 57.7777778,65 Z" id="Path"/>
                                <path d="M11.5555556,65 L2.88888889,65 C1.29339976,65 0,63.7065989 0,62.1111111 L0,54.8888889 C0,53.2934011 1.29339976,52 2.88888889,52 L11.5555556,52 C13.1510447,52 14.4444444,53.2934011 14.4444444,54.8888889 L14.4444444,62.1111111 C14.4444444,63.7065989 13.1510447,65 11.5555556,65 Z" id="Path"/>
                                <rect id="Rectangle" x="8.66666667" y="5.77777778" width="43.3333333" height="24.5555556"/>
                                <path d="M54.8888889,36.1111111 L5.77777778,36.1111111 C4.18228864,36.1111111 2.88888889,34.8177128 2.88888889,33.2222222 L2.88888889,2.88888889 C2.88888889,1.29339976 4.18228864,0 5.77777778,0 L54.8888889,0 C56.4843767,0 57.7777778,1.29339976 57.7777778,2.88888889 L57.7777778,33.2222222 C57.7777778,34.8177128 56.4843767,36.1111111 54.8888889,36.1111111 Z" id="Path"/>
                            </g>
                            <g id="icon" transform="translate(0.000000, 10.000000)" stroke="#F06E1E" stroke-width="2">
                                <path d="M7.22222222,52 L7.22222222,47.6666667 C7.22222222,46.0711788 8.51562198,44.7777778 10.1111111,44.7777778 L50.5555556,44.7777778 C52.1510434,44.7777778 53.4444444,46.0711788 53.4444444,47.6666667 L53.4444444,52" id="Path"/>
                                <line x1="30.3333333" y1="36.1111111" x2="30.3333333" y2="52" id="Path"/>
                                <path d="M34.6666667,65 L26,65 C24.4045094,65 23.1111111,63.7065989 23.1111111,62.1111111 L23.1111111,54.8888889 C23.1111111,53.2934011 24.4045094,52 26,52 L34.6666667,52 C36.2621572,52 37.5555556,53.2934011 37.5555556,54.8888889 L37.5555556,62.1111111 C37.5555556,63.7065989 36.2621572,65 34.6666667,65 Z" id="Path"/>
                                <path d="M57.7777778,65 L49.1111111,65 C47.5156233,65 46.2222222,63.7065989 46.2222222,62.1111111 L46.2222222,54.8888889 C46.2222222,53.2934011 47.5156233,52 49.1111111,52 L57.7777778,52 C59.3732656,52 60.6666667,53.2934011 60.6666667,54.8888889 L60.6666667,62.1111111 C60.6666667,63.7065989 59.3732656,65 57.7777778,65 Z" id="Path"/>
                                <path d="M11.5555556,65 L2.88888889,65 C1.29339976,65 0,63.7065989 0,62.1111111 L0,54.8888889 C0,53.2934011 1.29339976,52 2.88888889,52 L11.5555556,52 C13.1510447,52 14.4444444,53.2934011 14.4444444,54.8888889 L14.4444444,62.1111111 C14.4444444,63.7065989 13.1510447,65 11.5555556,65 Z" id="Path"/>
                                <rect id="Rectangle" stroke-linecap="round" stroke-linejoin="round" x="8.66666667" y="5.77777778" width="43.3333333" height="24.5555556"/>
                                <path d="M54.8888889,36.1111111 L5.77777778,36.1111111 C4.18228864,36.1111111 2.88888889,34.8177128 2.88888889,33.2222222 L2.88888889,2.88888889 C2.88888889,1.29339976 4.18228864,0 5.77777778,0 L54.8888889,0 C56.4843767,0 57.7777778,1.29339976 57.7777778,2.88888889 L57.7777778,33.2222222 C57.7777778,34.8177128 56.4843767,36.1111111 54.8888889,36.1111111 Z" id="Path" stroke-linecap="round" stroke-linejoin="round"/>
                            </g>
                        </g>
                    </g>
                </g>
            </g>
        </g>
    </g>
</svg>